<svg width="1384" height="1344" viewBox="0 0 1384 1344" fill="none" xmlns="http://www.w3.org/2000/svg">
<path d="M527.412 521.49C528.521 521.077 550.801 491.863 555.439 487.208L556.885 487.8L556.466 486.527L556.816 486.604C557.229 489.626 554.815 493.567 554.115 496.644C553.204 500.652 553.398 504.915 552.589 508.848C550.077 521.059 561.235 524.816 568.099 532.225C572.326 532.256 576.465 531.107 579.08 531.271C583.321 531.537 593.22 536.604 597.749 536.725C604.145 536.897 612.094 527.52 617.269 525.377C619.429 524.483 627.043 522.693 629.985 521.834C621.631 529.757 605.962 544.753 599.635 554.048L599.667 554.846L600.506 554.986C572.264 596.056 556.125 633.979 564.016 685.644C576.639 768.287 654.03 829.354 738.509 813.011C774.254 806.134 805.815 785.367 826.274 755.263C853.871 714.115 858.488 662.753 830.506 620.274C827.18 615.225 823.089 610.092 819.456 605.217C820.177 604.083 821.052 598.224 822.046 596.786C827.481 588.921 836.458 571.217 842.35 564.634C850.537 571.799 861.2 584.925 867.087 594.14C906.284 655.492 900.493 736.065 856.422 792.48C824.806 832.78 778.542 858.951 727.711 865.292C670.684 872.02 613.306 855.955 568.067 820.591C487.965 757.004 463.861 629.088 515.459 540.501C518.942 534.521 523.088 526.819 527.412 521.49Z" fill="#E3451F"/>
<path d="M627.008 424.604C630.892 420.659 639.249 415.085 643.804 411.436C648.775 407.453 653.504 403.549 658.285 399.334C693.738 368.079 723.262 329.325 722.376 279.688C722.075 262.825 719.173 248.353 712.499 232.701C710.761 228.626 706.377 222.34 705.553 218.228C708.497 215.89 715.745 221.633 718.308 223.404C735.464 235.376 750.763 249.81 763.71 266.242C804.697 318.349 803.535 393.536 751.749 437.712C746.262 442.392 732.661 456.399 726.328 459.016C712.267 470.518 693.827 480.583 677.636 489.942C653.071 504.142 630.628 520.735 611.74 542.219C610.559 543.561 600.594 554.927 600.506 554.986L599.667 554.846L599.635 554.048C605.962 544.753 621.631 529.757 629.985 521.834C627.043 522.693 619.429 524.483 617.269 525.377C612.094 527.52 604.145 536.897 597.749 536.725C593.22 536.604 583.321 531.537 579.08 531.271C576.465 531.107 572.326 532.256 568.099 532.225C561.235 524.816 550.077 521.059 552.589 508.848C553.398 504.915 553.204 500.652 554.115 496.644C554.815 493.567 557.229 489.626 556.816 486.604L556.466 486.527L556.885 487.8L555.439 487.208C550.801 491.863 528.521 521.077 527.412 521.49C543.169 491.187 598.145 443.271 627.008 424.604Z" fill="#FEA024"/>
<path d="M527.412 521.49C543.169 491.187 598.145 443.271 627.008 424.604C626.807 425.195 626.606 425.785 626.405 426.375C617.11 433.212 568.935 469.237 567.098 476.582L569.492 476.524L570.335 477.763L570.08 478.944C568.523 486.374 574.012 487.853 576.883 493.755C580.26 500.696 579.203 505.972 585.333 511.849C594.266 520.412 602.95 511.379 612.747 511.717C618.072 511.9 626.162 518.829 632.084 517.303C641.475 513.289 649.105 505.929 657.664 500.44C672.202 491.117 687.265 482.505 702.122 473.718C706.563 471.091 722.945 459.205 726.328 459.016C712.267 470.518 693.827 480.583 677.636 489.942C653.071 504.142 630.628 520.735 611.74 542.219C610.559 543.561 600.594 554.927 600.506 554.986L599.667 554.846L599.635 554.048C605.962 544.753 621.631 529.757 629.985 521.834C627.043 522.693 619.429 524.483 617.269 525.377C612.094 527.52 604.145 536.897 597.749 536.725C593.22 536.604 583.321 531.537 579.08 531.271C576.465 531.107 572.326 532.256 568.099 532.225C561.235 524.816 550.077 521.059 552.589 508.848C553.398 504.915 553.204 500.652 554.115 496.644C554.815 493.567 557.229 489.626 556.816 486.604L556.466 486.527L556.885 487.8L555.439 487.208C550.801 491.863 528.521 521.077 527.412 521.49Z" fill="#F77324"/>
<path d="M682.482 645.613C690.964 624.994 708.388 609.485 731.005 606.947C773.473 602.181 807.747 634.076 811.896 675.5C814.49 701.405 804.68 723.205 788.461 742.925C750.627 788.867 678.835 789.429 636.089 750.082C607.057 723.358 591.875 681.306 598.58 642.272C619.038 523.191 755.239 486.292 842.35 564.634C836.458 571.217 827.481 588.921 822.046 596.786C821.052 598.224 820.177 604.083 819.456 605.217C783.856 568.908 732.948 555.582 687.193 580.771C631.511 610.829 619.97 695.959 679.73 728.69C715.931 749.721 766.93 733.931 776.475 690.785C781.456 668.268 770.863 642.719 750.348 631.413C737.253 624.196 731.792 622.229 717.268 625.769C701.082 629.714 695.545 637.126 682.482 645.613Z" fill="url(#paint0_linear_1936_783)"/>
<path d="M814.164 922.949C846.625 919.429 875.792 942.891 879.306 975.35C882.82 1007.81 859.351 1036.97 826.889 1040.48C794.435 1043.98 765.282 1020.52 761.769 988.073C758.255 955.623 781.712 926.468 814.164 922.949ZM821.384 1017.03C840.845 1016.35 856.055 999.995 855.323 980.538C854.591 961.081 838.195 945.917 818.738 946.703C799.357 947.486 784.264 963.803 784.993 983.184C785.722 1002.57 801.999 1017.7 821.384 1017.03Z" fill="#BC180B"/>
<path d="M524.574 926.471C525.187 926.441 525.799 926.415 526.412 926.394C535.61 926.058 545.234 926.331 554.483 926.256C577.249 925.989 600.654 926.742 618.013 943.846C640.647 966.148 638.857 1000.37 617.68 1022.65C593.579 1045.59 554.772 1037.5 523.775 1038.17C523.717 1032.77 523.826 1026.74 524.082 1021.32C525.556 990.085 522.892 957.56 524.574 926.471ZM598.643 1007.43C613.696 991.891 611.993 970.835 596.717 956.342C584.222 944.488 566.037 946.425 550.057 946.491C549.604 959.891 549.928 974.338 549.996 987.822C550.039 996.245 549.78 1008.99 550.567 1016.98C566.359 1017.44 586.186 1019.34 598.643 1007.43Z" fill="#BC180B"/>
<path d="M662.274 926.067C693.496 925.731 748.535 918.323 748.299 965.391C748.277 976.513 743.77 987.156 735.797 994.912C726.184 1004.41 716.22 1006.33 703.32 1006.27C695.327 1006.33 687.337 1006.52 679.352 1006.85C679.175 1017.27 679.407 1028.17 679.483 1038.64C671.811 1038.73 661.206 1039.12 653.788 1038.58C653.936 1001.54 652.905 963.447 653.652 926.501L662.274 926.067ZM679.723 985.58C692.287 985.809 705.185 987.742 715.263 980.044C725.686 968.697 723.204 958.1 712.642 947.978C702.896 945.815 689.895 946.496 679.707 946.564C679.129 959.699 679.515 972.448 679.723 985.58Z" fill="#BC180B"/>
<path d="M437.313 926.253C445.733 926.055 454.56 926.224 463.014 926.276C467.077 937.828 474.86 952.934 480.006 964.477C487.24 980.135 494.02 996.08 501.084 1011.81C503.416 1017 512.721 1033.3 512.29 1037.44C507.637 1039.03 492.391 1038.48 486.817 1038.45C481.93 1030.76 479.164 1022.37 475.943 1013.86L465.275 1013.72C451.762 1013.85 438.248 1013.77 424.737 1013.5C422.781 1019.71 417.583 1030.96 414.842 1037.32C405.809 1037.65 396.802 1037.47 387.771 1037.28C396.319 1016.97 405.751 996.942 414.908 976.915C422.568 960.162 429.64 943.017 437.313 926.253ZM433.819 992.95C438.663 992.95 443.729 992.876 448.55 992.994C454.947 993.123 459.629 993.003 466.016 992.589C464.332 989.021 450.407 956.536 450.454 956.582C447.695 960.339 436.056 987.27 433.819 992.95Z" fill="#BC180B"/>
<path d="M998.112 926.321C1026.29 926.149 1054.46 926.143 1082.64 926.301L1082.55 947.387C1065.57 948.511 1041.25 947.62 1023.15 947.859L1023.1 970.467L1075.77 970.382C1075.76 977.137 1075.68 983.892 1075.52 990.646C1060.14 990.948 1044.75 991.149 1029.37 991.249C1027.18 991.23 1025.4 990.997 1023.4 991.833C1022.75 996.548 1023.07 1010.33 1023.09 1015.66C1043.52 1015.91 1064.33 1015.71 1084.79 1015.66C1085.1 1022.4 1084.98 1030.56 1085.04 1037.42C1055.95 1037.49 1026.86 1037.4 997.767 1037.16C997.475 1023.63 997.955 1010.78 998.016 997.324L998.112 926.321Z" fill="#BC180B"/>
<path d="M303.822 926.39L398.086 926.611C397.847 933.421 397.763 940.235 397.837 947.049C388.315 947.713 373.98 947.098 363.544 947.355C363.541 965.544 363.699 983.733 364.018 1001.92L364.186 1037.31C355.613 1037.51 347.036 1037.47 338.465 1037.19C337.695 1008.26 338.323 976.493 338.327 947.32C326.751 947.127 315.172 947.116 303.595 947.286C303.624 940.32 303.7 933.354 303.822 926.39Z" fill="#BC180B"/>
<path d="M901.411 925.795C909.562 926.114 918.191 925.9 926.381 925.836C926.736 955.874 926.117 985.979 926.511 1016.07C945.636 1016.69 964.933 1015.15 983.211 1015.77C983.312 1022.9 983.249 1030.2 983.259 1037.36C955.832 1037.69 928.402 1037.64 900.976 1037.21L900.874 965.772C900.9 953.522 900.539 937.617 901.411 925.795Z" fill="#BC180B"/>
<path d="M828.815 1061.02C841.321 1060.1 864.291 1058.68 871.91 1069.93C874.786 1074.24 875.759 1079.55 874.602 1084.6C872.688 1092.68 868.01 1093.66 862.354 1096.93C862.109 1102.47 876.592 1109.97 875.045 1117.09C872.714 1118.76 872.933 1118.19 869.432 1118.26C863.706 1115.12 856.293 1104.01 851.946 1098.25C847.587 1097.94 842.425 1098.12 837.991 1098.17C837.942 1103.56 839.824 1112.99 836.972 1116.68C834.77 1118.07 831.96 1117.63 829.249 1117.57C828.33 1099.68 829.638 1079.53 828.815 1061.02ZM837.472 1090.77C845.455 1090.77 855.535 1091.65 862.363 1087.68C866.14 1084.29 869.708 1078.48 864.55 1074.35C856.957 1068.28 846.962 1069.35 837.888 1069.82C837.269 1076.27 837.379 1084.21 837.472 1090.77Z" fill="#BC180B"/>
<path d="M608.127 1060.85C609.895 1060.88 612.879 1060.96 614.107 1062.16C625.698 1073.47 634.527 1088.14 646.09 1100.04C645.641 1092.83 644.913 1072.55 645.976 1064.52C646.163 1063.11 649.35 1061.46 651.168 1060.88C653.569 1061.28 652.707 1060.69 654.043 1062.34C655.662 1074.63 654.219 1101.42 654.211 1114.98C654.21 1117 653.371 1117.05 651.914 1118.03C650.837 1117.77 648.333 1117.19 647.591 1116.47C636.227 1105.44 624.326 1088.68 614.837 1076.18C615.392 1082.22 616.675 1113.58 614.264 1116.75C611.528 1117.84 608.816 1117.56 605.815 1117.57C606.624 1099.89 605.501 1081.91 606.149 1064.22C606.236 1061.85 606.511 1062.08 608.127 1060.85Z" fill="#BC180B"/>
<path d="M404.574 1060.79C405.538 1060.75 408.879 1060.63 409.441 1060.98C420.245 1067.6 437.931 1093.7 444.727 1103.36C444.586 1089.47 444.592 1075.59 444.742 1061.7C447.83 1061.46 450.506 1061.53 453.588 1061.58C452.595 1079.94 452.57 1099.54 452.183 1118.03C449.843 1118.28 446.703 1118.73 444.967 1116.72C441.868 1113.13 439.08 1109.21 436.134 1105.48L412.568 1075.49C413.518 1087.33 412.887 1105.4 412.346 1117.16C409.879 1117.27 406.694 1117.13 404.166 1117.1C404.214 1098.5 404.059 1079.35 404.574 1060.79Z" fill="#BC180B"/>
<path d="M757.842 1060.79C763.315 1060.45 795.685 1059.88 799.054 1061.48C799.679 1064.11 800.114 1067 798.67 1069.39C792.928 1070.26 774.264 1069.88 767.52 1069.88C767.498 1075.02 767.413 1080.15 767.265 1085.29L796.753 1085.23L796.714 1093.5C790.313 1094.16 779.723 1093.96 772.925 1094.01C769.853 1094.03 769.255 1093.58 767.557 1095.25C766.126 1099.36 767.003 1104.21 767.237 1108.86L800.17 1108.83C800.298 1111.57 800.178 1114.69 800.142 1117.47C786.006 1117.62 771.869 1117.66 757.732 1117.58L757.842 1060.79Z" fill="#BC180B"/>
<path d="M719.261 1061.21L728.491 1061.11L728.1 1069.9C717.425 1070.19 706.746 1070.3 696.067 1070.25C696.004 1075.13 695.989 1080.01 696.022 1084.9C704.619 1084.27 717.425 1084.58 726.34 1084.54C726.338 1087.28 726.043 1090.45 725.856 1093.22C716.068 1093.55 705.957 1093.47 696.137 1093.51C696.053 1098.43 696.147 1103.56 696.165 1108.5L706.022 1108.45L729.891 1108.19L729.771 1117.39C716.687 1117.93 700.627 1117.63 687.315 1117.68C687.249 1099.69 686.749 1079.2 687.551 1061.41L719.261 1061.21Z" fill="#BC180B"/>
<path d="M985.423 1103.37C984.348 1091.33 983.809 1076.48 985.064 1064.55C985.363 1061.7 989.931 1060.25 992.858 1062.05C993.658 1066.55 992.934 1116.27 991.865 1118.01C990.571 1118.04 987.17 1118.12 986.269 1117.16C982.718 1113.37 979.533 1108.98 976.301 1104.87L952.753 1074.98C953.249 1081.2 954.545 1114.01 952.116 1117.1C951.182 1117.17 945.958 1117.56 945.917 1116.54C945.396 1103.6 942.847 1073.11 945.315 1061.45C950.661 1061.13 952.596 1062.33 956.107 1066.37C966.175 1077.95 976.566 1090.87 985.423 1103.37Z" fill="#BC180B"/>
<path d="M336.853 1060.48C349.762 1060.6 362.672 1060.61 375.582 1060.51C375.604 1063.6 375.267 1066.46 374.979 1069.53C364.559 1069.7 353.846 1069.59 343.402 1069.6L343.316 1084.72C352.884 1084.4 363.367 1084.55 373.007 1084.49L372.822 1092.51C363.246 1092.69 353.668 1092.77 344.091 1092.77L343.461 1093.26C342.928 1097.51 343.22 1104.52 343.271 1109.01L377.021 1108.77C377.018 1111.5 376.738 1114.72 376.569 1117.49C362.768 1117.68 348.566 1117.55 334.736 1117.57C334.641 1109.62 333.593 1065.98 335.171 1061.03L336.853 1060.48Z" fill="#BC180B"/>
<path d="M506.304 1059.64C512.835 1059.3 528.252 1059.79 530.632 1066.98C530.313 1069.43 530.366 1069.26 528.694 1071.08C523.969 1073.56 516.818 1070.13 511.573 1068.94C501.212 1066.58 491.047 1078.24 489.475 1087.58C487.862 1099.31 497.733 1109.94 509.266 1110.46C525.545 1111.19 525.287 1105.61 525.413 1092.13C525.746 1091.05 525.682 1091.36 526.423 1090.41C537.605 1088.68 533.725 1105.31 533.165 1112.47C522.873 1120.51 506.015 1122.17 494.825 1115.17C488.015 1110.91 483.19 1104.11 481.423 1096.27C477.609 1078.81 489.476 1063.55 506.304 1059.64Z" fill="#BC180B"/>
<path d="M1047.14 1059.7C1053.05 1059.24 1074.52 1061.4 1069.42 1071.49C1066.54 1073.36 1063.97 1072.5 1060.86 1070.93C1046.25 1063.57 1031.67 1072.47 1029.9 1088.91C1028.24 1104.37 1051.08 1118.16 1063.3 1106.71C1067.07 1103.17 1065.84 1097.4 1065.38 1092.97C1065.71 1090.78 1065.22 1091.65 1066.82 1090.22C1067.93 1089.91 1072.05 1088.9 1072.24 1090.57C1073.19 1099.08 1076.14 1114.01 1065.08 1117.12C1055.87 1119.7 1046.06 1119.95 1037.57 1115.76C1030.56 1112.34 1025.27 1106.2 1022.93 1098.77C1020.58 1091.12 1021.4 1082.85 1025.2 1075.82C1030.17 1066.72 1037.74 1062.57 1047.14 1059.7Z" fill="#BC180B"/>
<path d="M566.814 1061.65C569.329 1061.59 571.126 1061.29 573.38 1062.34C574.059 1064.79 574.02 1112.46 573.531 1116.96L572.426 1117.67C570.097 1117.84 567.093 1118.22 565.19 1117.13C563.186 1102.19 566.043 1081.41 565.028 1065.93C564.883 1063.72 565.308 1062.97 566.814 1061.65Z" fill="#BC180B"/>
<path d="M903.643 1061.72C906.327 1061.58 908.977 1061.15 911.418 1062.14C912.272 1068.82 912.526 1111.29 911.467 1117.24C908.546 1117.51 905.476 1118.32 903.308 1116.16C902.227 1108.53 903.136 1070.6 903.643 1061.72Z" fill="#BC180B"/>
<defs>
<linearGradient id="paint0_linear_1936_783" x1="693.384" y1="776.006" x2="730.742" y2="521.75" gradientUnits="userSpaceOnUse">
<stop stop-color="#E13C1F"/>
<stop offset="1" stop-color="#FF8721"/>
</linearGradient>
</defs>
</svg>
